<svg width="23" height="23" viewBox="0 0 23 23" fill="none" xmlns="http://www.w3.org/2000/svg">
    <path
        d="M11.455 2.15625C9.23458 2.15625 7.50862 2.15625 6.16504 2.3C4.80612 2.44663 3.72992 2.75042 2.87125 3.43658C1.98958 4.14192 1.5775 5.05904 1.38296 6.21575C1.198 7.31975 1.198 8.72467 1.198 10.4765V10.6519C1.198 12.3596 1.198 13.5413 1.38966 14.422C1.49316 14.8963 1.65608 15.3084 1.91196 15.6898C2.16496 16.0655 2.48696 16.3818 2.87125 16.6884C3.47596 17.1724 4.18896 17.4647 5.03133 17.6468V20.125C5.03144 20.2509 5.06464 20.3746 5.12759 20.4837C5.19054 20.5927 5.28104 20.6833 5.39003 20.7464C5.49901 20.8095 5.62266 20.8428 5.74858 20.8431C5.87451 20.8434 5.99829 20.8105 6.10754 20.7479C6.66912 20.4269 7.1665 20.0771 7.62171 19.7474L7.91304 19.5356C8.2372 19.2929 8.56828 19.0597 8.90587 18.836C9.71471 18.3109 10.4871 17.9688 11.5001 17.9688H11.5451C13.7656 17.9688 15.4915 17.9688 16.8351 17.825C18.194 17.6784 19.2703 17.3746 20.1289 16.6884C20.5123 16.3818 20.8352 16.0655 21.0873 15.6898C21.3441 15.3084 21.507 14.8963 21.6105 14.422C21.8022 13.5413 21.8022 12.3596 21.8022 10.6519V10.4765C21.8022 8.72467 21.8022 7.31975 21.6172 6.21671C21.4227 5.05904 21.0106 4.14192 20.1289 3.43658C19.2703 2.74946 18.194 2.44663 16.8351 2.30096C15.4915 2.15625 13.7656 2.15625 11.5451 2.15625H11.455Z"
        fill="#000000" />
</svg>
    